<?xml version="1.0" encoding="utf-8" ?><svg xmlns="http://www.w3.org/2000/svg" xmlns:xlink="http://www.w3.org/1999/xlink" width="512" height="448" viewBox="0 0 512 448"><path fill="#FEFEFE" transform="matrix(0.810127 0 0 0.810127 6.10352e-05 0)" d="M0 0L632 0L632 553L0 553L0 0Z"/><defs><linearGradient id="gradient_0" gradientUnits="userSpaceOnUse" x1="284.35507" y1="284.94418" x2="374.15195" y2="108.61936"><stop offset="0" stop-color="#1D468C"/><stop offset="1" stop-color="#3A9AD3"/></linearGradient></defs><path fill="url(#gradient_0)" transform="matrix(0.810127 0 0 0.810127 6.10352e-05 0)" d="M346.222 178.64C354.504 172.723 364.346 167.579 372.955 162.068C379.025 158.182 385.298 154.652 391.525 151.031C403.066 143.545 414.746 140.37 428.644 141.088C422.512 143.791 418.029 144.415 412.63 148.641C414.598 150.282 415.743 151.128 418.149 152.161L418.525 152.039C428.047 148.875 436.676 139.986 447.419 145.213C461.606 152.115 440.811 168.699 434.295 173.329C428.479 177.469 422.316 180.91 416.284 184.55C402.905 192.518 389.381 200.238 375.719 207.707C371.061 210.22 366.29 212.471 361.624 214.98C347.529 222.624 333.318 230.055 318.998 237.27C310.14 241.776 287.499 253.775 277.987 254.74C271.567 256.933 255.069 258.373 248.357 257.68C246.411 257.835 244.446 257.559 242.531 257.271L241.336 254.858C235.511 254.285 228.672 252.363 222.847 251.295C218.814 250.556 214.691 250.063 210.757 249.048C221.105 244.588 232.313 244.165 243.334 244.061C244.471 243.325 244.31 243.668 244.725 242.614C242.026 242.427 239.823 242.474 237.134 242.526C236.524 240.754 234.467 237.461 233.446 235.527C230.796 232.181 227.557 226.072 225.22 222.266C223.771 219.906 221.49 216.309 220.253 213.956C222.013 213.603 225.433 212.856 227.109 213.342C232.942 215.035 239.234 219.096 244.619 221.793C251.372 225.174 257.727 228.646 264.249 232.296C273.182 226.788 282.027 220.639 291.064 215.046L304.789 206.578C307.696 204.806 311.146 202.927 313.831 200.965C311.256 199.794 308.551 198.48 305.932 197.441C283.522 188.548 260.894 179.163 237.7 172.55C240.949 171.769 253.743 168.292 256.232 168.352C264.739 168.558 276.846 170.793 285.386 172.092C303.78 174.892 322.119 177.671 340.489 180.546C352.193 182.378 366.602 185.814 378.355 186.493C373.853 184.051 370.458 183.095 365.611 181.562C364.774 175.437 360.716 174.338 359.409 180.936C355.301 180.21 350.078 179.605 346.222 178.64Z"/><path fill="#1F2A67" transform="matrix(0.810127 0 0 0.810127 6.10352e-05 0)" d="M233.446 235.527L233.961 235.387C234.192 235.809 234.391 236.144 234.696 236.52C237.967 235.457 241.724 235.089 244.969 236.559C247.77 237.828 247.87 240.132 249.313 241.742C250.168 241.91 250.482 241.924 251.297 242.252C249.618 242.382 246.274 242.735 244.725 242.614C242.026 242.427 239.823 242.474 237.134 242.526C236.524 240.754 234.467 237.461 233.446 235.527Z"/><path fill="#1F2A67" transform="matrix(0.810127 0 0 0.810127 6.10352e-05 0)" d="M248.357 257.68C253.468 256.264 264.847 256.519 270.605 255.768C273.148 255.436 275.919 254.53 277.542 254.362L277.987 254.74C271.567 256.933 255.069 258.373 248.357 257.68Z"/><path fill="#DCF2FE" transform="matrix(0.810127 0 0 0.810127 6.10352e-05 0)" d="M251.297 242.252C255.45 242.476 258.782 242.207 262.916 242.996C257.075 244.079 249.275 244.118 243.334 244.061C244.471 243.325 244.31 243.668 244.725 242.614C246.274 242.735 249.618 242.382 251.297 242.252Z"/><path fill="#FEFEFE" transform="matrix(0.810127 0 0 0.810127 6.10352e-05 0)" d="M379.47 165.537C383.267 166.026 384.452 169.708 381.717 172.273C377.431 172.034 377.168 168.377 379.47 165.537Z"/><path fill="#FEFEFE" transform="matrix(0.810127 0 0 0.810127 6.10352e-05 0)" d="M388.244 160.496C389.354 160.438 389.433 160.424 390.516 160.607C392.841 162.178 392.63 164.264 391.155 166.443C387.213 166.402 385.966 163.656 388.244 160.496Z"/><path fill="#FEFEFE" transform="matrix(0.810127 0 0 0.810127 6.10352e-05 0)" d="M370.589 171.164C374.523 171.096 375.135 174.306 373.13 177.163C369.318 177.061 368.263 174.002 370.589 171.164Z"/><path fill="#FEFEFE" transform="matrix(0.810127 0 0 0.810127 6.10352e-05 0)" d="M304.797 212.953C309.009 212.771 309.176 215.489 307.632 218.638C306.965 218.716 306.101 218.766 305.474 218.474C304.751 218.134 304.214 217.492 304.006 216.721C303.623 215.283 304.081 214.154 304.797 212.953Z"/><path fill="#FEFEFE" transform="matrix(0.810127 0 0 0.810127 6.10352e-05 0)" d="M287.462 223.037C291.236 222.852 292.552 224.939 290.807 228.341C286.796 228.83 285.776 226.379 287.462 223.037Z"/><path fill="#FEFEFE" transform="matrix(0.810127 0 0 0.810127 6.10352e-05 0)" d="M296.103 218.476C300.134 218.09 300.721 220.634 299.024 223.775C295.035 223.789 294.09 221.932 296.103 218.476Z"/><path fill="#FEFEFE" transform="matrix(0.810127 0 0 0.810127 6.10352e-05 0)" d="M313.365 208.205C316.922 208.218 317.404 211.944 314.924 214.023C311.389 214.273 311.156 210.489 313.365 208.205Z"/><path fill="#FEFEFE" transform="matrix(0.810127 0 0 0.810127 6.10352e-05 0)" d="M280.662 227.637C284.341 228.208 284.263 230.774 282.526 233.452C278.786 232.961 278.482 230.227 280.662 227.637Z"/><defs><linearGradient id="gradient_1" gradientUnits="userSpaceOnUse" x1="247.6884" y1="459.23969" x2="248.31212" y2="483.3945"><stop offset="0" stop-color="#77B63D"/><stop offset="1" stop-color="#34857D"/></linearGradient></defs><path fill="url(#gradient_1)" transform="matrix(0.810127 0 0 0.810127 6.10352e-05 0)" d="M69.065 481.669C75.8843 478.645 86.0765 475.584 93.2047 473.579C120.739 465.834 149.559 463.02 178.031 461.305C202.275 459.68 226.58 459.135 250.872 459.673C284.93 460.331 321.895 463.066 355.968 465.593L391.502 467.984C397.221 468.336 405.608 468.58 410.981 469.259L410.352 469.55C413.679 470.286 420.471 469.991 424.072 470.446C424.21 470.61 424.347 470.774 424.485 470.938C424.337 473.46 420.629 476.111 421.093 478.706C422.041 479.69 424.045 478.858 426.376 479.872C416.812 479.976 405.495 479.256 395.766 478.871C358.087 477.383 320.202 473.421 282.575 471.147C251.677 469.151 220.71 468.413 189.752 468.935C154.012 469.449 119.369 471.999 84.1716 478.288C79.2667 479.164 74.3757 480.855 69.4882 481.606L69.065 481.669Z"/><path fill="#1F2A67" transform="matrix(0.810127 0 0 0.810127 6.10352e-05 0)" d="M70.9826 395.985L88.4161 395.967C98.6342 395.961 115.119 394.955 115.742 409.711C115.988 415.524 113.691 419.107 108.978 422.218C117.816 425.257 121.319 433.827 117.694 442.315C112.088 451.726 100.868 450.324 91.3504 450.305L70.9701 450.254C70.8008 432.165 70.8049 414.074 70.9826 395.985Z"/><path fill="#FEFEFE" transform="matrix(0.810127 0 0 0.810127 6.10352e-05 0)" d="M82.4082 427.028C90.0122 426.992 107.572 424.312 107.766 434.387C107.809 436.565 107.059 437.893 105.649 439.403C103.954 440.544 102.267 441.214 100.222 441.286C94.338 441.493 88.3532 441.471 82.4682 441.527C82.3655 436.694 82.3455 431.861 82.4082 427.028Z"/><path fill="#FEFEFE" transform="matrix(0.810127 0 0 0.810127 6.10352e-05 0)" d="M82.5138 404.809C87.4974 404.778 92.4652 404.674 97.4414 404.933C104.014 405.276 106.431 412.036 102.198 416.751C98.1141 419.283 87.8457 418.634 82.6042 418.666C82.3926 414.329 82.5126 409.207 82.5138 404.809Z"/><path fill="#529F46" transform="matrix(0.810127 0 0 0.810127 6.10352e-05 0)" d="M357.538 232.591C356.08 237.587 352.998 242.628 350.506 247.218C337.748 270.721 318.397 291.254 297.142 307.294C292.144 311.066 286.277 315.339 280.765 318.367C279.207 319.762 274.959 321.779 273.062 322.806C248.924 335.954 210.469 347.412 187.014 327.538C175.068 317.416 177.586 293.314 184.671 280.98C186.523 280.626 187.967 280.208 189.782 279.684C187.502 289.308 184.837 298.542 188.738 308.254C191.232 314.462 196.715 320.102 203.085 322.471C221.357 329.267 242.576 323.804 260.142 317.312C265.133 315.467 270.078 312.836 274.912 310.852C280.091 307.788 285.46 305.328 290.645 302.036C311.163 288.75 329.271 272.071 344.194 252.711C348.237 247.503 351.72 241.868 355.062 236.195C355.826 234.899 356.572 233.748 357.538 232.591Z"/><path fill="#73B446" transform="matrix(0.810127 0 0 0.810127 6.10352e-05 0)" d="M357.538 232.591C356.08 237.587 352.998 242.628 350.506 247.218C337.748 270.721 318.397 291.254 297.142 307.294C292.144 311.066 286.277 315.339 280.765 318.367C281.089 317.765 281.416 317.303 281.99 316.919C290.016 311.542 297.895 306.261 305.282 299.988C315.071 291.674 324.22 282.212 332.69 272.554C332.469 271.206 332.286 272.721 330.505 270.723L330.292 270.482C329.594 270.722 319.664 280.638 317.983 282.124C307.076 291.92 295.137 300.502 282.376 307.72C280.449 308.801 277.049 310.91 274.912 310.852C280.091 307.788 285.46 305.328 290.645 302.036C311.163 288.75 329.271 272.071 344.194 252.711C348.237 247.503 351.72 241.868 355.062 236.195C355.826 234.899 356.572 233.748 357.538 232.591Z"/><path fill="#E67528" transform="matrix(0.810127 0 0 0.810127 6.10352e-05 0)" d="M324.168 90.051C354.184 92.3008 378.51 101.545 402.45 120.333C407.868 124.585 413.833 130.939 418.749 135.893C415.936 136.156 413.3 136.412 410.497 136.806C403.274 138.29 398.29 140.696 392.04 144.305C387.577 140.186 381.701 134.844 376.785 131.36C364.09 122.362 343.197 113.269 327.594 111.85C326.527 104.922 324.949 96.8478 324.168 90.051Z"/><path fill="#1F2A67" transform="matrix(0.810127 0 0 0.810127 6.10352e-05 0)" d="M499.01 408.664C505.598 408.383 510.215 409.865 514.482 415.035C514.46 412.78 514.516 411.191 514.701 408.944C518.151 409.014 521.79 408.959 525.256 408.961C525.328 417.184 525.351 425.408 525.326 433.631C525.324 446.786 526.748 461.434 510.489 465.842C500.596 468.524 491.981 466.559 483.236 461.565C483.744 460.053 484.483 458.279 485.07 456.771L486.833 452.664C493.608 457.406 504.421 461.384 511.636 454.427C514.789 451.386 514.733 447.244 514.686 443.141C495.111 461.385 470.807 436.713 485.072 416.098C488.216 411.556 493.744 409.432 499.01 408.664Z"/><path fill="#FEFEFE" transform="matrix(0.810127 0 0 0.810127 6.10352e-05 0)" d="M500.913 417.911C506.922 416.612 512.86 420.38 514.245 426.37C515.629 432.36 511.947 438.351 505.978 439.822C502.039 440.792 497.884 439.566 495.103 436.613C492.322 433.661 491.346 429.44 492.549 425.567C493.753 421.693 496.948 418.768 500.913 417.911Z"/><path fill="#1F2A67" transform="matrix(0.810127 0 0 0.810127 6.10352e-05 0)" d="M201.896 408.351C208.261 407.918 214.017 410.358 216.99 416.211C217.565 415.548 218.156 414.898 218.763 414.264C225.341 407.34 237.167 405.919 244.09 412.913C245.983 414.862 247.363 417.25 248.105 419.864C249.641 425.237 249.286 444.021 249.283 450.228C245.561 450.283 241.741 450.241 238.011 450.244C237.982 443.984 239.341 424.679 235.368 420.549C233.82 418.94 232.045 418.384 229.871 418.3C227.499 418.208 225.133 418.73 223.388 420.433C219.069 424.651 220.371 434.749 220.398 440.381L220.367 450.235C216.609 450.313 212.684 450.251 208.912 450.246C208.919 442.074 209.376 432.862 208.256 424.77C206.943 415.281 192.629 415.819 191.734 425.35C190.976 433.423 191.35 442.025 191.398 450.208C187.75 450.296 183.865 450.236 180.198 450.242L180.013 408.907C183.535 408.843 187.17 408.895 190.703 408.907L190.824 414.011C194.432 410.58 197.031 409.046 201.896 408.351Z"/><path fill="#1F2A67" transform="matrix(0.810127 0 0 0.810127 6.10352e-05 0)" d="M356.158 408.101C368.128 406.249 379.348 414.406 381.278 426.364C383.208 438.321 375.125 449.594 363.181 451.603C351.125 453.631 339.723 445.455 337.775 433.386C335.826 421.317 344.077 409.97 356.158 408.101Z"/><path fill="#FEFEFE" transform="matrix(0.810127 0 0 0.810127 6.10352e-05 0)" d="M358.8 417.315C374.575 417.988 374.231 440.022 360.361 442.164C348.911 442.25 345.683 430.789 350.674 421.989C352.333 419.064 355.615 417.922 358.8 417.315Z"/><path fill="#1F2A67" transform="matrix(0.810127 0 0 0.810127 6.10352e-05 0)" d="M144.971 408.026C156.964 406.148 168.209 414.349 170.086 426.343C171.963 438.337 163.761 449.581 151.767 451.457C139.775 453.333 128.532 445.132 126.655 433.139C124.779 421.147 132.978 409.904 144.971 408.026Z"/><path fill="#FEFEFE" transform="matrix(0.810127 0 0 0.810127 6.10352e-05 0)" d="M148.094 417.012C150.288 417.017 152.429 417.69 154.232 418.941C162.431 424.632 160.831 440.099 149.228 442.251C137.457 442.466 134.214 429.695 139.866 421.188C141.7 418.427 144.953 417.445 148.094 417.012Z"/><defs><linearGradient id="gradient_2" gradientUnits="userSpaceOnUse" x1="369.47388" y1="242.92505" x2="381.01538" y2="315.56207"><stop offset="0" stop-color="#80BB44"/><stop offset="1" stop-color="#449647"/></linearGradient></defs><path fill="url(#gradient_2)" transform="matrix(0.810127 0 0 0.810127 6.10352e-05 0)" d="M419.894 234.658C420.131 234.607 420.619 234.645 420.888 234.651C420.978 234.821 421.139 235.087 421.123 235.269C417.567 275.854 385.097 310.819 346.331 321.306C340.765 322.812 336.348 323.446 331.191 324.21L330.071 324.259C329.199 322.87 330.815 315.471 331.176 313.444C370.236 309.518 407.027 275.919 410.202 236.042C413.417 235.474 416.649 235.012 419.894 234.658Z"/><path fill="#E67528" transform="matrix(0.810127 0 0 0.810127 6.10352e-05 0)" d="M306.917 90.2345C308.924 90.0663 311.498 90.0607 313.551 89.9988C312.855 96.1228 311.546 103.35 310.624 109.548C282.305 108.135 257.862 112.611 232.911 126.438C226.014 130.26 218.365 135.175 212.405 140.34C210.715 141.713 208.965 143.257 207.295 144.676C208.789 141.949 211.689 138.73 213.766 136.32C238.644 107.442 269.163 92.9 306.917 90.2345Z"/><path fill="#E67528" transform="matrix(0.810127 0 0 0.810127 6.10352e-05 0)" d="M432.358 300.178C432.596 300.301 432.462 300.205 432.689 300.542C430.863 303.352 423.884 311.108 421.455 313.654C395.311 341.067 362.816 356.559 325.014 357.804L324.73 357.507C324.674 356.288 324.916 355.168 325.131 353.976C326.118 348.511 327.117 343.075 327.852 337.569C366.119 341.14 404.974 326.954 432.358 300.178Z"/><path fill="#1F2A67" transform="matrix(0.810127 0 0 0.810127 6.10352e-05 0)" d="M279.094 395.776C283.209 395.817 287.326 395.779 291.44 395.662C292.67 399.633 295.558 405.937 297.244 409.92C300.902 418.496 304.491 427.101 308.011 435.735C309.191 432.6 311.169 428.582 312.534 425.402C316.758 415.555 321.301 405.995 324.886 395.875C328.719 395.952 332.694 395.915 336.539 395.932C335.376 399.602 333.649 403.376 332.11 406.936C327.873 416.46 323.736 426.028 319.698 435.638C317.741 440.201 315.528 445.762 313.307 450.054C309.292 450.089 305.276 450.058 301.262 449.959C298.712 441.808 279.099 399.802 279.094 395.776Z"/><path fill="#1F2A67" transform="matrix(0.810127 0 0 0.810127 6.10352e-05 0)" d="M554.897 408.688C565.624 408.05 574.2 414.205 576.75 424.609C577.512 427.717 577.534 430.347 577.615 433.509C567.064 433.501 556.569 433.241 545.991 433.335L546.317 434.437C548.806 442.815 557.754 444.751 564.971 440.501C565.897 439.956 567.162 438.708 568.142 437.986L568.651 438.241L573.729 444.967C565.951 452.453 551.382 453.375 542.802 446.803C533.521 439.695 532.496 424.869 539.815 416.019C543.949 411.019 548.589 409.303 554.897 408.688Z"/><path fill="#FEFEFE" transform="matrix(0.810127 0 0 0.810127 6.10352e-05 0)" d="M554.012 417.271C561.527 416.357 565.264 419.776 566.939 426.803L559.316 426.895C554.882 426.948 550.448 426.922 546.015 426.818C547.152 421.002 548.7 419.565 554.012 417.271Z"/><path fill="#1F2A67" transform="matrix(0.810127 0 0 0.810127 6.10352e-05 0)" d="M448.133 408.987C470.309 407.42 472.167 419.112 471.541 437.671C471.403 441.769 471.542 446.387 471.538 450.533C468.138 450.588 464.519 450.497 461.103 450.466L460.987 446.208C454.762 452.54 443.994 453.593 436.864 448.204C434.573 445.972 433.534 443.744 433.383 440.532C432.665 425.211 449.851 427.162 460.225 427.203C459.503 416.381 450.283 416.607 442.271 419.624C441.005 420.101 439.975 420.982 438.966 421.864C437.871 418.879 436.871 416.321 435.61 413.404C439.908 410.76 443.183 409.724 448.133 408.987Z"/><path fill="#FEFEFE" transform="matrix(0.810127 0 0 0.810127 6.10352e-05 0)" d="M451.037 433.727C454.288 433.561 457.057 433.59 460.305 433.643C460.233 435.85 460.145 437.28 459.846 439.459C457.921 442.093 456.66 442.773 453.712 443.767C451.088 444.187 448.224 444.369 446.035 442.565C444.948 441.681 444.278 440.386 444.185 438.988C444.115 437.788 444.534 436.611 445.347 435.726C446.991 433.93 448.798 433.908 451.037 433.727Z"/><path fill="#E67528" transform="matrix(0.810127 0 0 0.810127 6.10352e-05 0)" d="M221.191 276.915C222 277.593 227.392 286.488 228.551 288.116C235.592 297.871 244.158 306.428 253.92 313.459C246.545 316.962 239.29 318.159 231.372 319.911C229.422 320.315 227.275 320.594 225.291 320.892C215.293 310.935 204.508 296.335 198.902 283.372C206.829 281.661 213.445 279.218 221.191 276.915Z"/><path fill="#E67528" transform="matrix(0.810127 0 0 0.810127 6.10352e-05 0)" d="M280.597 327.071C282.712 327.282 292.862 331.42 295.937 332.283C300.972 333.696 305.489 334.586 310.606 335.657C311.766 343.022 312.818 350.693 314.483 357.931C305.634 357.293 298.453 356.606 289.8 354.791C274.354 351.126 265.475 347.972 251.394 340.063C255.256 338.324 260.382 336.538 264.404 334.915C270.657 332.392 274.722 330.308 280.597 327.071Z"/><path fill="#1F2A67" transform="matrix(0.810127 0 0 0.810127 6.10352e-05 0)" d="M420.027 409.005C423.556 408.961 427.165 409.002 430.702 409.004C426.957 419.544 420.949 432.849 416.592 443.335C414.411 448.577 412.444 453.731 409.636 458.686C404.122 468.417 392.879 468.496 384.212 462.942C385.368 460.034 386.358 457.23 387.392 454.28C392.727 458.311 398.308 459.715 401.816 452.705C401.237 449.721 398.603 443.843 397.347 440.873C394.573 434.176 391.751 427.499 388.882 420.842C387.669 418.005 384.833 411.722 384.004 409.007L395.361 408.988L407.618 439.26C411.673 429.664 416.535 418.744 420.027 409.005Z"/><defs><linearGradient id="gradient_3" gradientUnits="userSpaceOnUse" x1="390.44608" y1="322.02863" x2="373.52426" y2="267.30563"><stop offset="0" stop-color="#1D2A6B"/><stop offset="1" stop-color="#2E5C9F"/></linearGradient></defs><path fill="url(#gradient_3)" transform="matrix(0.810127 0 0 0.810127 6.10352e-05 0)" d="M425.376 247.435L425.641 247.743C426.506 251.168 425.658 258.613 425.201 262.389C419.616 308.554 382.863 336.811 337.06 331.168C336.686 331.114 336.355 330.994 335.988 330.886L336.008 330.52C337.395 329.875 339.03 329.615 340.545 329.317C375.369 322.461 405.791 297.066 419.986 264.732C422.272 259.525 423.734 252.981 425.376 247.435Z"/><defs><linearGradient id="gradient_4" gradientUnits="userSpaceOnUse" x1="253.76793" y1="198.43677" x2="255.65483" y2="114.31258"><stop offset="0" stop-color="#1D3178"/><stop offset="1" stop-color="#2E68AA"/></linearGradient></defs><path fill="url(#gradient_4)" transform="matrix(0.810127 0 0 0.810127 6.10352e-05 0)" d="M285.301 114.628C289.82 114.479 296.169 114.941 300.697 115.246C297.896 116.237 294.059 117.162 291.102 118.05C285.872 119.626 280.744 121.526 275.749 123.738C246.694 136.949 226.606 158.799 215.39 188.584C214.043 192.55 213.392 196.456 211.879 200.62C211.729 199.404 211.628 198.184 211.576 196.96C210.77 176.882 219.735 153.463 232.917 138.376C246.116 123.268 265.399 115.279 285.301 114.628Z"/><path fill="#277FBF" transform="matrix(0.810127 0 0 0.810127 6.10352e-05 0)" d="M410.981 469.259C461.473 470.846 521.751 474.366 570.964 461.884L571.53 462.649C564.154 464.952 555.591 467.791 548.092 469.611C517.757 476.972 485.806 479.43 454.647 480.045C448.138 480.172 441.628 480.201 435.118 480.132C433.221 480.109 428.153 480.1 426.376 479.872C424.045 478.858 422.041 479.69 421.093 478.706C420.629 476.111 424.337 473.46 424.485 470.938C424.347 470.774 424.21 470.61 424.072 470.446C420.471 469.991 413.679 470.286 410.352 469.55L410.981 469.259Z"/><path fill="#E67528" transform="matrix(0.810127 0 0 0.810127 6.10352e-05 0)" d="M228.229 132.359C228.833 132.978 227.698 134.137 227.159 134.908C223.235 140.518 218.572 147.29 215.698 153.545C207.573 171.225 203.601 194.241 204.436 213.54C198.219 214.351 192.017 215.503 185.794 216.138C185.313 215.134 186.167 208.468 186.405 206.827C188.793 190.677 194.954 173.227 204.215 159.656C210.046 151.111 220.111 138.542 228.229 132.359Z"/><path fill="#E67528" transform="matrix(0.810127 0 0 0.810127 6.10352e-05 0)" d="M449.51 229.369C450.289 229.222 450.478 229.113 451.244 229.315C451.967 230.642 450.846 238.852 450.616 240.694C447.944 262.123 439.646 281.439 425.158 297.549C419.956 303.334 417.665 306.481 411.177 311.423L410.33 311.869L409.888 311.704C410.185 310.885 414.429 305.566 415.393 304.191C417.068 301.778 418.624 299.285 420.057 296.721C430.287 278.444 434.654 252.984 432.95 232.214L449.51 229.369Z"/><path fill="#73B446" transform="matrix(0.810127 0 0 0.810127 6.10352e-05 0)" d="M305.623 122.003L308.524 121.798C308.167 125.237 307.4 129.376 306.898 132.896C289.433 134.324 271.015 143.372 258.124 155.101C254.673 158.241 251.904 161.549 248.863 165.076C245.397 165.322 241.935 165.639 238.481 166.026L234.306 166.537C234.989 165.505 235.7 164.492 236.437 163.498C253.897 139.918 276.587 126.361 305.623 122.003Z"/><path fill="#295898" transform="matrix(0.810127 0 0 0.810127 6.10352e-05 0)" d="M319.427 79.6516C320.05 80.6408 320.115 81.3726 320.359 82.5234C320.567 91.4174 320.44 100.824 320.483 109.773L320.543 171.913C315.421 171.13 309.763 170.149 304.649 169.659C306.049 158.819 308.914 145.652 310.943 134.733C312.923 123.622 314.722 112.479 316.34 101.309C317.428 93.9741 318.591 87.0364 319.427 79.6516Z"/><path fill="#E67528" transform="matrix(0.810127 0 0 0.810127 6.10352e-05 0)" d="M443.387 173.991C444.749 175.345 447.141 184.864 447.798 187.188C450.286 195.996 451.35 205.3 452.14 214.392C447.092 213.467 442.035 212.596 436.969 211.777L430.961 210.961C429.747 202.573 427.134 194.306 424.713 186.209C429.94 183.382 438.729 177.514 443.387 173.991Z"/><path fill="#295898" transform="matrix(0.810127 0 0 0.810127 6.10352e-05 0)" d="M389.14 208.865C409.636 211.508 431.418 215.687 451.902 218.916C457.104 219.72 462.312 220.484 467.525 221.209C469.124 221.423 473.454 221.748 474.702 222.195C474.326 222.658 474.122 222.561 473.387 222.738C445.319 223.725 415.857 223.241 387.646 223.464L389.14 208.865Z"/><path fill="#295898" transform="matrix(0.810127 0 0 0.810127 6.10352e-05 0)" d="M383.323 206.144L383.767 206.454C383.531 215.354 381.652 230.582 380.714 239.952C377.766 241.727 374.537 243.336 371.477 244.933C369.355 242.049 367.385 238.926 365.423 235.922C362 231.154 358.8 226.229 355.834 221.163C364.545 216.553 374.859 210.157 383.323 206.144Z"/><path fill="#73B446" transform="matrix(0.810127 0 0 0.810127 6.10352e-05 0)" d="M330.016 122.194C336.269 123.345 342.524 124.448 348.6 126.373C362.646 130.825 374.631 138.355 386.156 147.372L382.061 149.701C380.256 150.729 378.396 152.075 376.67 153.267C365.757 144.678 356.889 139.383 343.296 135.595C339.136 134.436 336.041 133.529 331.611 133.208C331.165 129.536 330.448 125.946 330.016 122.194Z"/><path fill="#529F46" transform="matrix(0.810127 0 0 0.810127 6.10352e-05 0)" d="M238.444 271.267C238.65 271.289 238.857 271.311 239.063 271.334C240.647 273.518 243.073 277.592 244.523 279.583C252.917 291.109 263.188 297.174 274.973 304.385C271.719 305.882 268.503 307.61 265.175 309.142C264.399 309.411 263.726 309.819 262.962 309.385C250.234 302.169 235.149 287.566 229.203 274.415L238.444 271.267Z"/><path fill="#295898" transform="matrix(0.810127 0 0 0.810127 6.10352e-05 0)" d="M320.073 242.866C321.066 244.082 320.575 267.18 320.557 270.348C318.02 273.401 309.899 280.797 306.662 283.878L306.122 280.744C304.618 272.4 302.66 260.323 301.631 252.017C308.365 249.241 313.617 246.088 320.073 242.866Z"/><path fill="#1F2A67" transform="matrix(0.810127 0 0 0.810127 6.10352e-05 0)" d="M320.288 297.799C320.796 299.082 320.677 366.479 320.332 371.61C319.684 368.742 319.356 364.894 319.014 361.906C318.918 358.596 317.546 351.166 316.986 347.579C315.841 339.957 314.65 332.341 313.413 324.733C312.5 319.207 311.077 311.593 310.605 306.133C313.934 303.474 317.164 300.694 320.288 297.799Z"/><path fill="#73B446" transform="matrix(0.810127 0 0 0.810127 6.10352e-05 0)" d="M229.095 174.445C232.232 175.892 235.065 176.903 238.309 178.083C236.193 183.985 231.65 191.289 229.798 197.823C228.945 200.831 228.321 205.419 227.272 208.427C227.184 208.679 225.998 208.743 225.566 208.803C222.982 209.005 219.268 209.624 216.63 209.971C219.249 195.628 222.305 187.446 229.095 174.445Z"/><path fill="#1F2A67" transform="matrix(0.810127 0 0 0.810127 6.10352e-05 0)" d="M168.676 223.191L200.131 222.584C205.76 222.475 212.344 222.185 217.897 222.289C219.801 226.035 222.107 229.115 224.165 232.656C206.319 230.129 188.468 227.588 170.626 225.007C169.072 224.783 167.546 224.571 165.981 224.435C167.168 223.312 166.765 223.674 168.676 223.191Z"/><path fill="#295898" transform="matrix(0.810127 0 0 0.810127 6.10352e-05 0)" d="M144.237 278.772C165.078 270.839 188.785 260.621 209.499 253.736C212.031 254.881 214.153 255.455 216.854 256.126L163.43 273.435C159.359 274.793 155.275 276.111 151.179 277.388C149.892 277.793 145.951 278.937 144.9 279.427L144.237 278.772Z"/><path fill="#73B446" transform="matrix(0.810127 0 0 0.810127 6.10352e-05 0)" d="M416.444 191.056L416.742 191.121C418.259 193.571 421.041 206.189 421.717 209.354C419.248 209.132 416.381 208.664 413.896 208.32C412.842 208.094 411.611 207.993 410.528 207.873C409.759 203.634 408.914 199.717 407.617 195.61C410.431 194.29 413.653 192.515 416.444 191.056Z"/><path fill="#295898" transform="matrix(0.810127 0 0 0.810127 6.10352e-05 0)" d="M227.629 258.765C230.597 259.945 232.637 260.282 235.759 260.866C219.103 266.003 202.502 271.488 185.818 276.562C184.147 277.07 182.164 277.599 180.553 278.183C179.496 278.106 179.527 278.068 178.649 277.567C184.562 275.097 191.106 272.758 197.162 270.464C206.98 266.745 217.752 262.202 227.629 258.765Z"/><path fill="#E67528" transform="matrix(0.810127 0 0 0.810127 6.10352e-05 0)" d="M185.582 231.548C191.087 232.372 196.738 233.168 202.227 234.113C203.665 234.361 205.135 234.861 205.915 236.12L205.658 236.716C204.274 237.719 201.815 238.524 200.147 239.155C196.231 240.646 190.005 243.32 186.241 244.319C185.624 241.316 185.155 234.482 185.582 231.548Z"/><path fill="#529F46" transform="matrix(0.810127 0 0 0.810127 6.10352e-05 0)" d="M301.851 312.832C302.405 312.842 306.287 313.346 307.226 313.424C307.55 317.018 308.195 320.828 308.739 324.419C305.88 324.03 303.03 323.583 300.189 323.077L291.077 320.971C294.844 318.202 298.155 315.716 301.851 312.832Z"/><path fill="#73B446" transform="matrix(0.810127 0 0 0.810127 6.10352e-05 0)" d="M162.659 257.774C173.956 253.65 184.796 248.957 195.993 244.637C199.856 243.147 203.763 241.595 207.707 240.365C209.908 239.706 210.809 240.886 212.349 242.237C200.449 247.493 186.043 250.477 173.753 254.953C170.364 256.188 166.756 257.096 163.405 258.441L162.659 257.774Z"/><defs><linearGradient id="gradient_5" gradientUnits="userSpaceOnUse" x1="230.69939" y1="274.62799" x2="230.32446" y2="263.09097"><stop offset="0" stop-color="#697197"/><stop offset="1" stop-color="#2659A3"/></linearGradient></defs><path fill="url(#gradient_5)" transform="matrix(0.810127 0 0 0.810127 6.10352e-05 0)" d="M244.432 262.337C245.61 262.175 251.109 262.675 252.914 262.698C241.076 267.261 225.857 271.013 213.315 274.936C210.837 275.704 208.339 276.405 205.823 277.039C211.158 274.782 217.028 272.799 222.487 270.718C229.787 267.934 237.096 264.983 244.432 262.337Z"/><path fill="#295898" transform="matrix(0.810127 0 0 0.810127 6.10352e-05 0)" d="M258.362 220.496C262.909 220.379 267.457 220.356 272.004 220.426C270.036 221.787 267.837 223.161 265.819 224.477L263.684 226.074C260.436 224.132 256.533 222.364 253.081 220.705L258.362 220.496Z"/><path fill="#529F46" transform="matrix(0.810127 0 0 0.810127 6.10352e-05 0)" d="M216.07 235.628C218.35 235.886 225.611 236.586 226.742 238.398L226.56 239.012L225.503 239.321C222.683 239.988 219.787 240.794 216.977 241.534C216.403 239.611 216.275 237.626 216.07 235.628Z"/><path fill="#E67528" transform="matrix(0.810127 0 0 0.810127 6.10352e-05 0)" d="M199.09 250.93L199.466 251.046C200.453 253.472 190.279 256.659 188.439 257.386C187.785 256.59 187.588 256.045 187.92 255.1C190.086 253.244 196.193 251.702 199.09 250.93Z"/><path fill="#949BAC" transform="matrix(0.810127 0 0 0.810127 6.10352e-05 0)" d="M180.553 278.183C176.118 279.236 170.856 281.383 166.702 282.186L166.85 282L167.252 282.122L167.366 281.744C169.725 280.725 176.259 278.264 178.649 277.567C179.527 278.068 179.496 278.106 180.553 278.183Z"/><path fill="#949BAC" transform="matrix(0.810127 0 0 0.810127 6.10352e-05 0)" d="M144.9 279.427C142.496 280.219 136.273 282.407 133.961 282.544C137.449 281.41 140.791 279.831 144.237 278.772L144.9 279.427Z"/><path fill="#C5C5C0" transform="matrix(0.810127 0 0 0.810127 6.10352e-05 0)" d="M163.405 258.441C160.923 259.218 156.604 260.869 154.136 261.156C157.106 259.869 159.536 258.709 162.659 257.774L163.405 258.441Z"/><path fill="#295898" transform="matrix(0.810127 0 0 0.810127 6.10352e-05 0)" d="M159.489 223.498C162.672 223.299 165.485 223.222 168.676 223.191C166.765 223.674 167.168 223.312 165.981 224.435C163.596 224.294 161.788 224.128 159.489 223.498Z"/><path fill="#7A94A6" transform="matrix(0.810127 0 0 0.810127 6.10352e-05 0)" d="M570.964 461.884C572.125 461.547 576.546 460.097 577.404 460.308C576.061 461.476 573.356 462.078 571.53 462.649L570.964 461.884Z"/><path fill="#7A94A6" transform="matrix(0.810127 0 0 0.810127 6.10352e-05 0)" d="M319.959 74.155C320.452 76.8263 320.492 79.8103 320.359 82.5234C320.115 81.3726 320.05 80.6408 319.427 79.6516C319.395 77.5875 319.652 76.1918 319.959 74.155Z"/></svg>